<?xml version="1.0" encoding="UTF-8"?>
<svg id="Capa_2" data-name="Capa 2" xmlns="http://www.w3.org/2000/svg" viewBox="0 0 100 100">
  <defs>
    <style>
      .cls-1 {
        fill: #fff;
      }
    </style>
  </defs>
  <path class="cls-1" d="M49.1574457,76.8011234c0,.5978266,.0059809,1.1957627-.0047468,1.7933955-.0023123,.1287856-.0649135,.2565014-.09975,.3847058-.1077315-.0664355-.2367498-.113017-.3200019-.2022967-1.2533041-1.3440063-2.4705334-2.7230457-3.7555403-4.035818-2.6745611-2.7323283-5.5858721-5.188756-8.7077813-7.402202-3.9669557-2.8126034-8.1573727-5.2473493-12.5013212-7.4143485-2.507341-1.2507928-5.0758639-2.3797663-7.6257365-3.5441096-1.1489168-.5246271-2.3205147-.9994887-3.4790283-1.5033437-.141555-.0615667-.2657381-.1630773-.3979701-.2460816,.1202429-.1265618,.2198749-.2869184,.3637886-.3746651,2.5114518-1.5312504,5.0187297-3.0697955,7.5485833-4.5702121,1.0664988-.6325184,1.0829672-.5930421,.8693869-1.849984-.2844452-1.6739726-.5598263-3.3494992-.8326214-5.0254134-.024113-.1481426-.0004128-.3040642,.0010782-.4563722,.1481318,.0291576,.3148255,.0240783,.4415441,.0927502,1.3528898,.7331108,2.7150794,1.4510469,4.044547,2.224965,2.9213352,1.7006074,5.7678253,3.5178243,8.5030207,5.5090522,2.0659022,1.5039838,4.0564876,3.0961271,5.8996235,4.8662572,2.6823026,2.5760571,5.0809476,5.3793948,6.8830808,8.6582173,1.623242,2.9533334,2.7215362,6.0746718,3.0186339,9.4465731,.106788,1.2119862,.1344517,2.4309469,.1982237,3.6467152-.0156682,.0007413-.0313406,.0014825-.047013,.0022154Z"/>
  <path class="cls-1" d="M51.0530532,76.373534c.0599435-2.2759982,.1856007-4.6554781,.8071733-6.9841142,.5072284-1.900255,1.3003929-3.6768795,2.2167887-5.4069562,2.0386598-3.8488435,4.8400744-7.081472,8.0544386-9.9804407,2.2739439-2.0508235,4.7100957-3.8913733,7.2354973-5.6211678,3.09489-2.1198787,6.3111158-4.0331857,9.6354607-5.7668718,.2256389-.1176667,.4766417-.4323275,.7209645-.2061336,.1172166,.1085189,.0294242,.4677691-.0062252,.707411-.2668479,1.7939936-.5440234,3.5864457-.8176103,5.3794369-.0895025,.5865729-.0673732,.6273928,.4563573,.9331248,1.5476556,.9034618,3.1033811,1.7935724,4.6387633,2.717461,1.1218007,.6750188,2.2164264,1.3951702,3.3231739,2.0952065,.0194336,.0122982,.0391873,.0241162,.0581913,.0370462,.432855,.2944236,.435618,.3487294-.0074887,.5752181-.2860541,.1462136-.5801782,.2780401-.8763913,.4027656-6.1499019,2.5896946-12.1522363,5.477418-17.8364137,8.9856102-3.563487,2.1993283-7.0002301,4.5872063-10.1009746,7.418535-1.6792937,1.5333816-3.327748,3.1022931-4.9467192,4.6991619-.7168958,.7071035-1.3218819,1.527064-1.9882267,2.2865191-.1248823,.1423389-.2998775,.2407075-.4517579,.3593597-.0383365-.1953727-.1054318-.3901136-.1097195-.5862275-.0140508-.6433973-.0052817-1.2872999-.0052817-2.044944Z"/>
  <path class="cls-1" d="M36.9441752,42.9432036c1.4671201,.0029001,2.9342403,.0058001,4.4013604,.0087002,.5116261,.0010113,1.0342652,.0037934,1.5178576,.1708193,.9982058,.3447661,1.6811336,1.7164335,.5279025,2.3688342-.4583384,.259285-1.0117953,.2661833-1.5383907,.266357-3.2953424,.0010854-6.5906846,.0021712-9.8860269,.003257-.1725042,.0000568-.3601953-.0050236-.4937353-.1142242-.1376487-.1125605-.1778509-.3028181-.2094115-.4778066-.1041264-.5773301-.2082528-1.1546603-.3123792-1.7319904-.0194609-.1079012-.0376677-.2250793,.012822-.3224044,.0840903-.1620944,.3035234-.1827628,.4861313-.1824019,1.8312899,.0036199,3.6625799,.0072399,5.4938698,.0108598Z"/>
  <path class="cls-1" d="M34.176172,22.7984618c.7918289,.0639739,1.53765-.2349547,2.2739468-.5925996,.1142095-.0554883,.2855058,.0065511,.4304069,.0142415-.0236478,.1219011-.0167878,.2614616-.0755838,.3630152-.703813,1.2156167-1.6858328,2.1329516-2.9938058,2.6606991-2.9123234,1.17507-6.1929347,.2309077-7.7732694-2.354626-1.3909153-2.2756037-1.4397537-4.6341402-.001988-6.8836285,1.3378873-2.0932178,3.3899606-2.9083108,5.8389245-2.7811345,.0970359,.0050439,.19838,.0002552,.2895114,.027486,.1151174,.0343991,.2218023,.0969904,.3321249,.1474171-.0842537,.0885998-.1531496,.225757-.2552059,.2580199-.7338993,.2319996-1.3216989,.6632492-1.8239689,1.2376791-1.8946214,2.1668107-1.4402106,5.4830804,.9778836,7.0394837,.8293508,.533812,1.7156699,.9096445,2.7810235,.8639472Z"/>
  <path class="cls-1" d="M72.5313281,27.5101962c-.8068152-.0074659-1.4667302-.6875797-1.4514219-1.4958364,.015262-.8051339,.7029828-1.4819803,1.494403-1.4707584,.7721967,.0109443,1.4448926,.7208204,1.4452396,1.5250984,.0003528,.822399-.6468448,1.4492803-1.4882207,1.4414963Z"/>
  <path class="cls-1" d="M26.8111326,27.9273073c-.0175425,1.0174685-.8326762,1.7805372-1.8907386,1.76997-.9360105-.0093458-1.7915445-.9343083-1.7796755-1.9241101,.0115574-.9640893,.8483949-1.7559913,1.8452924-1.7462118,1.072825,.0105251,1.8438645,.8133439,1.8251217,1.9003518Z"/>
  <path class="cls-1" d="M51.1667048,16.2027383c.0203855,.6066964-.5161154,1.1677169-1.1194505,1.170623-.5867318,.0028261-1.0832368-.4824637-1.1205877-1.0952755-.0357167-.5860001,.4523813-1.135331,1.0347075-1.1645076,.6070752-.0304148,1.1852654,.4920517,1.2053308,1.0891602Z"/>
  <path class="cls-1" d="M44.5636589,17.1312924l-1.0599467-2.6020046c-.0177483-.0435693-.0523183-.0781393-.0958876-.0958876l-2.6020046-1.0599467c-.1450626-.0590924-.1450626-.2645012,0-.3235936l2.6020046-1.0599467c.0435693-.0177483,.0781393-.0523183,.0958876-.0958876l1.0599467-2.6020046c.0590924-.1450626,.2645012-.1450626,.3235936,0l1.0599467,2.6020046c.0177483,.0435693,.0523183,.0781393,.0958876,.0958876l2.6020046,1.0599467c.1450626,.0590924,.1450626,.2645012,0,.3235936l-2.6020046,1.0599467c-.0435693,.0177483-.0781393,.0523183-.0958876,.0958876l-1.0599467,2.6020046c-.0590924,.1450626-.2645012,.1450626-.3235936,0Z"/>
  <path class="cls-1" d="M66.8894157,24.0217579l-1.0599467-2.6020046c-.0177483-.0435693-.0523183-.0781393-.0958876-.0958876l-2.6020046-1.0599467c-.1450626-.0590924-.1450626-.2645012,0-.3235936l2.6020046-1.0599467c.0435693-.0177483,.0781393-.0523183,.0958876-.0958876l1.0599467-2.6020046c.0590924-.1450626,.2645012-.1450626,.3235936,0l1.0599467,2.6020046c.0177483,.0435693,.0523183,.0781393,.0958876,.0958876l2.6020046,1.0599467c.1450626,.0590924,.1450626,.2645012,0,.3235936l-2.6020046,1.0599467c-.0435693,.0177483-.0781393,.0523183-.0958876,.0958876l-1.0599467,2.6020046c-.0590924,.1450626-.2645012,.1450626-.3235936,0Z"/>
  <path class="cls-1" d="M75.8526241,24.2824355l-.6407928-1.5730469c-.0107298-.0263399-.0316291-.0472393-.057969-.057969l-1.5730469-.6407928c-.0876979-.0357244-.0876979-.1599047,0-.1956291l1.5730469-.6407928c.0263399-.0107298,.0472393-.0316291,.057969-.057969l.6407928-1.5730469c.0357244-.0876979,.1599047-.0876979,.1956291,0l.6407928,1.5730469c.0107298,.0263399,.0316291,.0472393,.057969,.057969l1.5730469,.6407928c.0876979,.0357244,.0876979,.1599047,0,.1956291l-1.5730469,.6407928c-.0263399,.0107298-.0472393,.0316291-.057969,.057969l-.6407928,1.5730469c-.0357244,.0876979-.1599047,.0876979-.1956291,0Z"/>
  <path class="cls-1" d="M55.9390243,40.6869301c.1052001-.3494761,.2060149-.6843742,.3051807-1.0137997,.2521982-.0193098,.4392977,.091124,.5349743,.3052882,.0991777,.2220028,.0506165,.4836528-.1207698,.6506896-.0928925,.0905266-.2287302,.1366144-.3787275,.1361842,1.0239206-.0067274,2.0478411-.0130604,3.0717498-.0214606-.3004369-.0091052-.4648688-.1354553-.5267533-.4080865-.0580966-.2559264,.0766775-.5259766,.3191492-.6394933,.2387913-.111796,.5315927-.0430527,.6984503,.1639898,.1652086,.2049992,.1645634,.5030821-.0015653,.7150237-.0943981,.1204352-.1557927,.1575014-.3271671,.1670368,.43827-.0036445,.8765281-.0084361,1.3147981-.0123793-.2333186-.0278534-.3653087-.138335-.4220192-.3511251-.0710137-.2664297,.0398503-.5379257,.2713168-.6644192,.2295547-.1254419,.5385471-.0739053,.7093718,.1183083,.1752578,.1971964,.191652,.4984219,.0390378,.7171746-.0772391,.1107206-.1415493,.1583498-.2726074,.1769904,.3975116-.0036445,.7950112-.0073248,1.1925108-.0112322-.2238669-.038046-.3459869-.1604529-.3878686-.3885497-.0501266-.2730973,.0964055-.5433626,.3492968-.6442252,.2428421-.0968477,.5354164-.0072412,.6834183,.2093248,.1499137,.2193501,.1160499,.5395986-.0651347,.7329116-.0431244,.0460041-.0900367,.0716828-.1391117,.0863922,.3694789-.0037162,.7389817-.0065242,1.1084606-.0104435-.2344657-.0391334-.3614013-.1792966-.3871636-.4308735-.0294068-.2869941,.1795356-.5675118,.4578307-.614675,.3004369-.0509033,.5900598,.1128236,.6593289,.3868529,.0240058,.0949478,.026312,.2021434,.0103718,.2991225-.0333142,.2028603-.1339019,.314274-.3064473,.3545067,.3404545-.0036923,.680897-.0082568,1.0213515-.0121403-.0770958-.0220461-.1436285-.0706791-.1936117-.1649696-.1027266-.1938268-.1139349-.3892547-.0106825-.5797118,.1144129-.2110335,.301584-.3040813,.5428488-.2896707,.2331872,.0139207,.3960657,.1309744,.488301,.3400841,.0931195,.2111052,.0527195,.4086959-.0813377,.5934533-.0364329,.0502102-.0794139,.0781592-.1268041,.0934541,.3009029-.0035369,.6018177-.0070619,.9027206-.0107303-.0948641-.0405792-.1520885-.1343321-.2030037-.2825371-.0840382-.2446583,.0249856-.5173254,.2415755-.6514424,.2164226-.1340094,.5091522-.1087848,.6952121,.0599249,.184614,.1674072,.2362223,.4609017,.1224546,.6873496-.0413679,.0823175-.0942428,.1441901-.1648262,.178496,.2802787-.003525,.5605693-.006345,.840848-.0100014-.0563043-.0365165-.1024757-.101926-.1386696-.1813877-.099584-.2185854-.0753512-.4270737,.0743714-.6143762,.1531041-.1915206,.3622138-.2361625,.5897132-.1858806,.0343537,.0075996,.072818,.0352021,.1019858,.0674289-.2517203-1.0993196-.6504507-2.212046-1.8510271-2.6261071-.318492-.1098364-.6502236-.1633804-.9864242-.189537,.0524447,.3200095-.0373649,.5345202-.2522938,.6595081-.1995265,.116026-.481717,.0939918-.6601892-.0515366-.1843033-.1502722-.2390064-.3546978-.1619823-.6087841h1.0612974c-.3187549-.0241133-.6414052-.0241731-.9607097-.0231694-.5288086,.0016729-1.0540204,.0053771-1.5794474,.0089738h.9566709c.0943264,.2567389,.0364926,.4764475-.1594133,.6296711-.1899314,.1485635-.4789807,.1590548-.6772645,.0246032-.2117744-.1436046-.2876274-.361939-.2123599-.6537486-.2604431,.0018282-.521197,.0034772-.7809471,.0056997,.0938006,.0016131,.1874101,.0029992,.2806252,.0022225,.0675604,.2912599,.0001314,.5018991-.1999208,.6370676-.1984511,.1340811-.4088752,.1403425-.6171484,.0261925-.216327-.1185592-.2987042-.3257451-.2544566-.6388003,.0759247-.010802,.1521841-.0165137,.2284912-.021138-4.6927204,.0449287-9.2898357,.1442259-14.0352278,.1592221-1.3776386,.0043495-2.9146666-.0541056-3.8825696-1.0344478-.318492-.3225905-.5549054-.730235-.924946-.9921239-.5218422-.3693116-1.2072919-.3825393-1.846594-.3818702-2.7660911,.0029156-5.5321703,.0058312-8.2982615,.0087468-.2649838,.0002748-.5472341,.0055085-.768042,.1519929-.2262806,.1501169-.3406696,.4171559-.4373499,.6709076-.5517748,1.448246-.9218033,2.9656415-1.0986385,4.5053103-.0209827,.1827141-.0350587,.3834235,.0694603,.5347473,.1424694,.2062419,.4334545,.2280969,.6840994,.2297458,6.1281688,.0402208,12.2565169,.0503895,18.3847813,.0304942,2.0632436-.0067035,4.1264632-.018079,6.189671-.0315935-.0981382-.0056161-.2013547-.0312709-.3022412-.0786252Zm12.6356746-2.0406358c.0004899,.3218139-.2590331,.5819344-.5784213,.5797357-.3209177-.0022106-.575207-.2643147-.5698777-.5873951,.0051501-.3121829,.2563326-.5654446,.5658747-.5705707,.315445-.0052098,.5819224,.2593558,.5824243,.5782301Zm-1.899194-1.6617052c.3572908,.0788523,.7017602,.1814475,1.0151858,.3763138-.1436165,.2601564-.4102015,.3563588-.6805624,.256488-.2532976-.0935736-.3856939-.332807-.3346233-.6328018Zm-.2323627,1.0837857c.3035436,.006333,.5656119,.2696918,.5698419,.5726379,.0044212,.3169745-.2599174,.5849575-.5771547,.585077-.3223038,.0001195-.5787081-.257898-.5769755-.58062,.0017087-.3190536,.2696201-.583667,.5842883-.577095Zm-1.5745602-.0001912c.3195913,.0032024,.5713833,.2656888,.5663766,.5904182-.0049947,.3234867-.2674453,.5771428-.5871083,.5674281-.3208818-.0097385-.5642138-.27293-.5545709-.5998342,.0092008-.3114779,.266585-.561119,.5753026-.5580122Zm-1.5713937,.0000478c.3140589-.0004421,.5812294,.2700502,.5778,.5849694-.0035011,.3201171-.2687478,.5791024-.5866662,.5727933-.325064-.0064525-.5679658-.2635021-.5602587-.5928798,.0073487-.3142859,.2594036-.5644528,.5691249-.564883Zm-5.0639558,2.5523571c-.1036587,.1056542-.166523,.1248564-.4091142,.1249998-.3302141,.0001912-.5220453-.1450624-.5675476-.4297384-.0447375-.2798963,.1068252-.5446172,.3652848-.6380236,.2706716-.0978155,.5708456,.0154622,.706277,.2665611,.1142456,.2118341,.0731048,.5049581-.0949,.676201Zm4.0852746-1.9819776c.0060224,.316616-.2567628,.5852562-.5746335,.5874429-.3179423,.0021747-.5830098-.2617336-.5823884-.5798672,.0006094-.3147161,.2735035-.5836909,.5865109-.5780987,.3072957,.0054966,.5646559,.2628688,.570511,.570523Zm-1.8978557-1.6994405h1.0891986c.0543685,.2704207-.0236115,.4754796-.2389347,.6218325-.1881748,.1278915-.4588584,.1196705-.6411781-.0083524-.1981762-.1391715-.2669793-.3300707-.2090858-.6134801Zm.3268444,1.7139706c-.0030948,.3240005-.2634543,.5794967-.5837148,.5728052-.3236182-.0067513-.5676074-.2647448-.5607127-.5929037,.0065601-.3125294,.2593916-.5633176,.5693161-.5646918,.3172254-.00141,.5781823,.2639442,.5751114,.5847902Zm-1.911657-1.694398h1.0858768c.0727463,.1866692,.0218669,.3928275-.1361961,.5405904-.1730831,.1618031-.4393335,.2000881-.6549077,.0941711-.2286346-.1123457-.330931-.3177034-.294773-.6347615Zm.3434418,1.6859021c.00141,.3218377-.2572408,.5825677-.5767484,.5813728-.3207623-.0011949-.5760076-.2627493-.5715745-.5857342,.0042778-.3122904,.2544805-.5660181,.5642855-.5722317,.3150626-.0063211,.5826513,.2578502,.5840374,.5765931Zm-1.9178227-1.6543803h1.114949c.0430885,.2480877-.0393963,.4391423-.2409661,.5698777-.1923929,.1247728-.4031277,.1302694-.6008857,.0160596-.2063853-.1192045-.3041889-.3049178-.2730973-.5859373Zm-.7221574,1.6896183c.0446658-.0989029,.0799397-.2067796,.093705-.3139274,.0299206-.2327212,.2047602-.2899575,.4136309-.2945101,.304404-.0066198,.5691249,.2688195,.5713355,.572399,.0023181,.3188624-.2659875,.5860807-.5996669,.6131574-.1232313-.0605582-.2579219-.1055705-.3666948-.1857611-.1260513-.0929283-.1882226-.2233053-.1123098-.3913578Z"/>
  <path class="cls-1" d="M68.8849101,43.9162889c-.2144151,.0422043-.3964242-.0262761-.5363604-.1884497-.147261-.1706455-.1851995-.3683557-.096059-.5805602,.0935736,.0005497,.1771697,.0182463,.2531183,.0460519-.1118438-.0520026-.2491273-.0844803-.4245285-.0859262-2.2348091-.0184017-4.4695943-.0368033-6.7044034-.0552169,.0716948,.0110768,.1105533,.0566269,.1281185,.1281663,.0147213,.0599966,.0206003,.1221559,.0272799,.1637747-.0139207,.2610884-.1252746,.4374216-.3456285,.5344246-.2209035,.0972539-.4286988,.0602355-.6099431-.0965011-.1851398-.1601063-.2201148-.3687261-.1680525-.5970142,.0184972-.0811107,.0620399-.1384067,.1606679-.1371999,.0878141,.0010754,.1756402-.000478,.2634663-.0001314-1.2635005-.0104077-2.527013-.0208154-3.7905136-.0312231-.5117452-.0042061-1.0605088,.0024376-1.4803533,.2950598-.5293463,.3689412-.6808731,1.1818761-.3200095,1.7167548,.453768,.6725804,1.4005212,.7398301,2.2118668,.7391849,1.5714654-.0012547,3.1429427-.0025093,4.71442-.003764,1.8151797-.0014458,3.6303475-.0028917,5.4455272-.0043375,.228288-.0001912,.4717634-.0047677,.6612288-.1321215,.1783646-.1198856,.2754034-.3270834,.3485918-.5291431,.130353-.3598718,.2734796-.8274172,.2635858-1.2194561-.0012905,.0128214-.0001912,.0245674-.0020194,.0376278Zm-13.2027084,1.5184232c-.2916543-.1694983-.4904758-.4173471-.5802615-.7484693-.0480116-.1770502-.0122359-.2356607,.1597359-.3017991,.2830867-.1088565,.6017819,.0194412,.7279407,.2930404,.1361005,.2952031,.0181746,.593537-.3074152,.757228Zm.0693049-1.8019759c-.0288571-.0537472-.0491826-.1147355-.0604148-.1748157-.0324419-.1735849-.007755-.214212,.1556493-.2852854,.2276189-.0989985,.5381528-.1463887,.8812241-.1316435,.1755088,.3287563,.0963219,.6528285-.1908156,.8133889-.2809598,.1570952-.6350363,.0588255-.7856431-.2216443Zm1.2986907,1.8506208c-.3265577,.0048633-.5861524-.2458891-.5865706-.5665797-.0003943-.3097452,.2497726-.5621825,.5626485-.5677508,.325769-.0058073,.5902749,.2488405,.5889127,.5669741-.0013264,.3111672-.2518039,.5626843-.5649905,.5673564Zm.4464671-1.6553602c-.1986303-.1384784-.2913675-.3851084-.2323388-.617949,.0390617-.154084,.073057-.1786155,.2448017-.1779822,.1014003,.0003704,.2027886,.0000717,.3041889,.0000717v.0008603c.1247967,0,.2498204,.0045407,.3743303-.0013861,.1077094-.0051262,.1537972,.0545956,.1819852,.1444649,.071647,.2284912-.0089738,.4899739-.1955833,.6313679-.2041389,.1547173-.4732451,.1628785-.677384,.0205525Zm1.1040036,1.6553124c-.3256256-.0018402-.5780628-.260252-.5696148-.5831054,.0081732-.312852,.2604192-.5535791,.5776566-.5513088,.3162097,.0022703,.5667709,.2478846,.5703079,.5590279,.0036564,.3218019-.2530705,.5772145-.5783496,.5753862Zm.3944645-1.7077451c-.2045451-.1887245-.2357204-.4591929-.078207-.7271521h.9553565c.1483125,.3244427,.0903951,.6041358-.1436882,.7715431-.2251932,.1610384-.5308519,.1425411-.7334612-.044391Zm1.1838238,1.7077332c-.3286368,.0020075-.5791144-.2474425-.5758284-.5734266,.0031904-.3159707,.2477173-.558538,.5654326-.5609159,.3187788-.0023779,.5692324,.2367839,.5764975,.5505082,.0075638,.3269998-.2395561,.5818507-.5661018,.5838343Zm1.570139,.0000478c-.3230446,.0039671-.5879448-.2533215-.5871681-.570284,.0007647-.3069133,.2563326-.5602945,.5691488-.5642736,.3239049-.0041344,.5903107,.2543371,.5871322,.5696387-.0031068,.3092075-.2568584,.5610831-.569113,.5649188Zm.4217563-1.6755422c-.2189677-.16724-.2739696-.4280894-.1440587-.7290401h.9827678c.1325875,.3023846,.079378,.558299-.1420751,.7287055-.2106153,.1620779-.4847043,.1622094-.696634,.0003346Zm1.1210311,1.6755303c-.31848-.0029036-.5606171-.2441804-.5637478-.5617403-.0031307-.3172732,.2370826-.5657433,.5535671-.5725901,.3261992-.0070619,.5901434,.2434634,.5919836,.5619076,.0018641,.3206906-.2570137,.5753862-.5818029,.5724229Zm.4101298-1.6988908c-.1971964-.1756282-.2405478-.4045496-.1177108-.7044607,.2977125,0,.5862958,.0030112,.8747596-.0014578,.1184995-.0018402,.1645873,.0536755,.183204,.1634999,.0419175,.2472155-.0567583,.4795901-.2656649,.602917-.2227914,.131524-.4854452,.1079603-.6745879-.0604984Zm1.1690069,1.6989506c-.3280513,.0031665-.5794609-.2458055-.5777402-.57216,.0016609-.3153972,.2461639-.5592788,.5638075-.5623975,.3189819-.0031307,.5694595,.2346928,.5776924,.5484649,.0085795,.327406-.237214,.5829261-.5637597,.5860927Zm.4433723-1.6608448c-.2246077-.155243-.2875318-.4020164-.174039-.719648h1.0076817c.1255734,.265641,.0805969,.5105264-.1186787,.6839799-.2022867,.1760823-.4910015,.190481-.714964,.0356681Zm1.1224531,1.6608687c-.3257332,.0010037-.5828306-.2549704-.5778717-.5753862,.0048035-.3099364,.2575754-.5572714,.5714191-.5591235,.3152777-.0018521,.571921,.2422566,.5808231,.5524917,.0091172,.3173688-.251075,.5810262-.5743706,.582018Zm.4079073-1.693203c-.2034697-.1758792-.2504656-.4102732-.1339855-.6749942h1.0274336c.0894512,.3531445,.0126063,.5861644-.2195771,.7265427-.2204614,.1332805-.4832824,.1131821-.6738709-.0515485Zm1.1497807,1.6930955c-.3256734-.0024974-.5773459-.2615425-.5679778-.5846229,.0090694-.3130671,.2614588-.5526949,.5790546-.5497793,.3160544,.0029036,.5660779,.2492946,.5688023,.5605335,.002808,.3217183-.2545044,.5763661-.5798791,.5738687Z"/>
  <path class="cls-1" d="M58.8339628,52.6048566c.0590406-.2230543,.2035773-.3679136,.4332155-.4108468,.24522-.0458368,.4456187,.0270648,.6034428,.2461998,.45096-.4267511,.8901143-.8309541,1.3101021-1.2090245,.0051142-.4337891,.2726074-.6650883,.6609898-.5974085-.0016131,.0041583-.0026527,.0086034-.0039432,.0129887,.187661-.1649338,.3703034-.3238691,.5468517-.4760054-.2043659-.0652661-.335161-.1782929-.4012516-.3622855-.1056422-.2941516,.0441162-.6231708,.3335359-.7316211,.2915706-.1092628,.6237205,.0412245,.7348354,.329294,.027483,.0712526,.0321431,.1324441,.0087229,.1892861,.5673923-.4771047,1.0451422-.8639935,1.3993024-1.1454193-.1479541-.1555059-.1886647-.3149909-.1482409-.5208624,.0931554,0,.177803-.0081015,.2603475,.0016729,.009631,.0011471,.0176489,.0042419,.0266227,.0062016-.0237071-.0092008-.049326-.0154383-.0780517-.0154383h-28.774534c-.2015579,0-.2887028,.2539667-.1296719,.3778075,.8301177,.6464716,2.6184477,2.0822427,4.6687146,3.9901596,.2537875-.1560197,.5121156-.1364351,.7041739,.038273,.1896804,.1725454,.2298534,.4204539,.0929283,.7121679-.062948-.0591004-.123064-.1155361-.184602-.1733221,3.7596729,3.5851559,8.1424807,8.5908,9.1271604,13.1888354,.0499951,.2334859,.3136884,.2333425,.363349-.0002031,.0407465-.191664,.0887103-.3841883,.1408443-.5771428-.0831181,.2192665-.2498443,.3376225-.5129162,.3458674-.0992614-.3436449-.1997655-.6915915-.2994331-1.0366583,.2508838-.1288116,.4744998-.1069566,.6594483,.0558383,.1468787,.1292895,.2136623,.3171417,.1876371,.5050178,.1018902-.3604215,.2232575-.7227429,.361461-1.0861158-.0340192,.0149962-.079868,.0174935-.1554103,.0167407-.2613274-.0026049-.4882771-.1797746-.5493491-.4288541-.0607016-.2475739,.0594947-.520253,.2822383-.6403058,.2212142-.1192164,.5225831-.0721727,.6930373,.107112,.0361461,.0380221,.061777,.0756858,.0736425,.1168624,.1079603-.24099,.2227317-.4820994,.3439675-.723185-.0386315,.0162986-.0835483,.0170036-.135515,.0089977-.2654976-.0409138-.4649046-.2560459-.4842622-.5255106-.0197878-.2755349,.1426606-.5180663,.3968305-.5924854,.276443-.0809434,.5088655,.0170992,.6643953,.2791674,.1409041-.2508241,.2876274-.5012897,.4404209-.7510503-.040388,.0195727-.0844086,.0269931-.1301021,.0243643-.3096138,.0003585-.5384395-.1962524-.5903107-.488767-.0451557-.2545881,.1077931-.5204561,.3563946-.6195144,.2581131-.1028342,.5509622-.0109812,.6981038,.2223135,.0457293,.0724953,.0754229,.144453,.0729136,.2185973,.6258594-.9593714,1.3274164-1.9050969,2.0703772-2.8208062-.1112703-.1984272-.0917334-.4106795,.0483103-.5840135,.1416569-.1753534,.3414104-.2395561,.5807275-.1725932,.1476912-.1738,.2963742-.3464649,.4461445-.5175644-.2577068-.1009821-.3822884-.2929328-.364986-.5566859,.0165615-.2526165,.1908395-.4621205,.4314949-.5187115,.255078-.0599966,.4800322,.0416786,.6338772,.2925146,.4588823-.502628,.9222455-.9908573,1.3833981-1.4612108-.0177683,.0172426-.0367197,.0356323-.054249,.0526598,.0000836-.2232336,.1338302-.3665036,.4266674-.4290573,.1854982-.1859642,.3701959-.3688815,.5538181-.5485605-.2060746-.171685-.2892644-.369682-.2236159-.61771Zm3.9103036-4.6600156h1.1204337c.0288452,.2512901-.0469959,.4451647-.2455784,.5786364-.1984869,.133412-.4114681,.1412745-.61771,.015259-.2150843-.1314045-.3010941-.3261036-.2571452-.5938954Zm-2.5874517,3.8110661c-.327418-.0100253-.5638075-.2643386-.5536388-.5956161,.009619-.3134375,.262367-.5565305,.5759837-.5539615,.3217422,.0026288,.5731637,.26306,.5673445,.5876938-.0058431,.326701-.2631556,.5718732-.5896893,.5618837Zm1.0325717-3.810146c.0331469-.0055683,.0702011-.0170514,.1073031-.0172187,.3274897-.00141,.6549794-.0008125,.976602-.0008125,.0676201,.230403,.0010157,.4323791-.1767993,.5718852-.1928589,.1513237-.4486419,.1655312-.6592691,.036636-.2027767-.1241036-.2896707-.3251716-.2478368-.5904899Zm.3389608,1.6736662c-.0018282,.3267966-.2592363,.5759957-.586953,.5682287-.3151582-.0074682-.5586216-.2602878-.5558614-.5772264,.0028917-.3314568,.2513738-.5691966,.5883869-.5629353,.3207384,.0059507,.5562318,.2488764,.5544275,.5719329Zm-1.8977362-1.6796049h1.0945399c.0506045,.2485179-.0272082,.4382103-.2215129,.5786842-.192118,.1388966-.4418667,.1407607-.6394575,.0147094-.2026333-.1292537-.2798963-.319663-.2335696-.5933936Zm.3387816,1.6762711c-.0010993,.3091119-.2530347,.564405-.5637597,.5712399-.3265577,.0071814-.588124-.240512-.5932741-.5618001-.0051979-.3253747,.243093-.5762824,.5720883-.5781345,.3265457-.0018282,.5860688,.2504776,.5849455,.5686947Zm-1.9190057-1.6758051h1.0977423c.0504014,.2630242-.0310438,.4641757-.2324463,.5920433-.1985228,.1260394-.4495022,.1248325-.6397084-.0127497-.1934205-.1399243-.2723086-.3285412-.2255875-.5792936Zm.3383753,1.6758529c-.0001912,.3231999-.2371304,.5662093-.5569129,.5711802-.3264262,.0050784-.5831532-.2475142-.582735-.5733549,.0004182-.3205711,.2405239-.5628516,.5615133-.5665917,.3375031-.0039313,.5783257,.2330079,.5781345,.5687664Zm-.771794,1.5687171c-.0022106,.3138318-.2495216,.5645603-.5633415,.5711443-.3278123,.0068827-.5847305-.2383851-.5901076-.5633415-.0053054-.3206309,.2508121-.5835594,.5710607-.5862838,.3169864-.0026886,.5846229,.2631556,.5823884,.5784811Zm-1.1355493-3.2481547h1.0878245c.0695798,.2047363,.0121045,.4055414-.1524828,.5463499-.1783407,.1525784-.4278862,.1840643-.6368645,.0803579-.2228631-.1105892-.326235-.3181813-.2984772-.6267077Zm.3487591,1.673714c.002581,.3210611-.2546359,.578254-.5773698,.577322-.3183008-.0009201-.5642138-.2403328-.5714669-.5563513-.0076235-.3322096,.2309288-.5800823,.5620391-.5839538,.3317316-.0038835,.5841928,.2383253,.5867977,.5629831Zm-9.1686358,7.2539676c.3049775,.0127139,.5630786,.2801831,.5609756,.581325-.0022225,.3188744-.2692138,.5809665-.5866423,.5758762-.3223994-.0051859-.5746693-.2672422-.5676791-.5897013,.0069066-.3192328,.2801472-.5805602,.5933458-.5674998Zm-.7993129-.4163792c-.328362,.0017804-.5779553-.2470243-.5761629-.5743467,.0018043-.3290311,.2499279-.5723392,.5800106-.5687545,.3247533,.0035369,.5760195,.2617814,.5687784,.584599-.0070022,.3130551-.2569062,.5567934-.572626,.5585021Zm2.921609,.9879059c.0037281,.3220409-.2525687,.5843003-.5723631,.5856864-.3204039,.0013861-.5778717-.2584835-.5760434-.5813967,.0017685-.3118363,.2500235-.5673445,.5600914-.5764378,.3144173-.0092247,.5846229,.2535604,.5883152,.572148Zm-.3668979-1.5474715c-.006345-.3233075,.2451005-.5807514,.5700211-.5836192,.3241917-.0028558,.586248,.2516844,.5870725,.5702123,.0008125,.3174883-.2645536,.5780987-.5851367,.5746454-.3149192-.0033936-.5658389-.2496053-.5719568-.5612385Zm-.9902001,.5594461c-.3265338,.000932-.5784691-.2556276-.5726499-.5831532,.00564-.3175361,.2526523-.559709,.5711443-.559936,.331397-.0002509,.5721958,.2463312,.5680853,.5817312-.0039432,.3223874-.2442162,.5604498-.5665797,.561358Zm-.0010754,1.9972963c.3355553,.0001553,.5720285,.2414082,.5677149,.5791861-.0040986,.320834-.2468092,.5607127-.5673445,.5607486-.3256017,.0000358-.5777761-.257193-.5723034-.5837745,.0053532-.3197825,.2486016-.5563154,.5719329-.5561601Zm.7618046,1.559098c.3205114-.0113636,.587885,.2397114,.5960821,.5597329,.0083285,.3253866-.2391498,.5842286-.5638792,.589761-.3261155,.0055563-.5812891-.2431767-.5840494-.5692922-.0026408-.3141306,.2399026-.5691488,.5518465-.5802017Zm.2298653-1.0206704c.0184972-.3332611,.2879978-.5614177,.6347853-.5374239,.2952748,.0204211,.5338152,.2874362,.5217825,.5840733-.0134667,.3316838-.2905549,.5759718-.6265524,.5523603-.3118961-.0219147-.5472939-.287962-.5300154-.5990097Zm.7903032-1.5335508c-.0023181-.324132,.2530466-.5861285,.5713116-.5861166,.3091836,0,.5639748,.2510631,.5719329,.5635805,.0083166,.3262589-.2393529,.5885303-.5610831,.5941344-.3232238,.0056519-.5798433-.2463193-.5821614-.5715984Zm.7821061-1.5668649c-.0030829-.3289714,.2476576-.5804527,.5766051-.5782899,.3286129,.0021628,.5734146,.2556874,.566508,.5866901-.0066318,.3174883-.2548151,.5577493-.5748127,.5564708-.3164845-.0012786-.565337-.2486135-.5683004-.564871Zm.7768485-1.5659807c-.0039313-.3150745,.262355-.5743467,.5861046-.5706424,.3129476,.0035608,.5687306,.2562609,.5701764,.5632818,.0014817,.316843-.2632034,.5748127-.5861763,.5712996-.312386-.0034055-.5662452-.2545164-.5701047-.563939Zm1.9240721-1.5764601c.0043375,.3260319-.2491632,.5877775-.5677627,.5862361-.3117766-.0015175-.5619076-.2508002-.5663288-.5644289-.0046363-.3294493,.2412528-.5816715,.5674281-.5820658,.3158273-.0003704,.5624334,.2434515,.5666634,.5602587Zm-.358187-1.5489054c-.0047558-.3271073,.2444313-.5841689,.5675835-.5855191,.3188624-.0013264,.5814206,.2612079,.5791144,.5790666-.0022823,.3151462-.2470004,.5639629-.5611787,.5705707-.3301424,.0069424-.5807395-.2344896-.5855191-.5641182Zm-.2145824,4.1131041c.3257212-.002354,.5755535,.2492946,.5727574,.5769396-.0027125,.3183128-.24614,.5630308-.561812,.5647874-.3273104,.0018163-.5752548-.248267-.5722556-.5772145,.0028797-.3177511,.2459728-.5622303,.5613102-.5645125Zm.2147855-.9954817c.0022225-.3263904,.2574917-.5710726,.5868933-.5625529,.3140708,.0081254,.5623856,.2623072,.5584902,.571694-.0040508,.3214793-.2650914,.5696865-.5914698,.5624214-.3167355-.0070619-.5560765-.2540265-.5539137-.5715625Zm.7769919-1.5492519c-.0053174-.3141903,.2402133-.5704154,.5555148-.5796999,.3315763-.0097744,.5854952,.2320998,.5907887,.5627441,.0050784,.3180738-.2344538,.5721122-.5505201,.5838701-.3180379,.0118177-.5903704-.247323-.5957834-.5669143Zm.7883077-1.5554296c-.0100253-.3281588,.2318967-.589534,.5540093-.5985317,.3231761-.0090216,.5825557,.240512,.5874668,.5651697,.0050067,.330943-.2379907,.5820897-.5657791,.5847544-.3185756,.002593-.5660062-.234394-.5756969-.5513924Zm.0273515-3.2641307h1.0949462c.0530063,.2495455-.030303,.4364299-.2209871,.5773698-.1882943,.1391595-.4383895,.1409997-.6386091,.0152949-.2034578-.1277362-.2811749-.3172373-.23535-.5926647Zm.3306682,1.680525c-.0022584,.318253-.2475859,.5643333-.5650622,.5668068-.3222082,.0025093-.5847185-.259057-.5813728-.5792697,.0033099-.3164367,.2505134-.5597209,.5702959-.5612624,.3354239-.0016251,.578505,.2404403,.576139,.5737253Zm-1.6721965-1.2647552c.0409019-.1338661,.0832018-.2673019,.1287996-.4132008h.7393043c.0420609,.2665252-.0437935,.4692541-.2434515,.5924018-.2134472,.1316435-.4296069,.1170178-.6578591-.0511064,.0102046-.0397667,.0198833-.0844923,.0332066-.1280946Zm-.2152993,.7670144c.271974,.1180693,.3931262,.3998655,.2921442,.6836095-.1058932,.297593-.381201,.4294635-.7190984,.3374911,.1466636-.3507427,.2868388-.6859874,.4269542-1.0211006Zm-.8161014,1.5382826c.2701339,.108032,.4124241,.3485679,.3589756,.6177459-.0581803,.2930762-.2884638,.4824579-.5793534,.4765072-.2818082-.0057714-.4785386-.175927-.5281036-.453075,.2495097-.213746,.4973704-.42607,.7484813-.6411781Zm-1.0037385,1.5185546c.3306682-.0059626,.5831293,.2401057,.5842166,.5693997,.0010635,.3252552-.259057,.5843242-.5806797,.5783138-.3113584-.0058073-.5615611-.261411-.5624214-.5745737-.0008842-.31897,.2413723-.5674042,.5588845-.5731398Zm-.1996938,2.1339226c-.0010874,.3270237-.2530944,.5723153-.5823526,.5668426-.3171776-.0052815-.5590996-.2507166-.5588606-.566986,.000239-.3251596,.2543969-.5727813,.5823645-.5673923,.3176675,.0052218,.5599002,.2512065,.5588487,.5675357Zm-1.3392341-2.1337195c.3138916,.0075518,.5640107,.2601325,.5644169,.5699852,.0004063,.3142979-.2698352,.5813967-.5847305,.5779195-.3200812-.0035369-.5787917-.2688314-.572399-.5869649,.0065362-.325064,.2641235-.5688501,.5927125-.5609398Zm-.2261253,2.1316643c-.0000239,.3215271-.2591765,.5736775-.5847544,.5689576-.3248728-.004708-.5750875-.2668598-.5626724-.5895101,.0120567-.3134017,.265414-.5499585,.5835714-.5448562,.3155645,.0050784,.5638792,.2540743,.5638553,.5654087Zm-1.3615551-2.1318913c.3324486-.0010396,.5737373,.2436068,.5712399,.579198-.0023898,.3192806-.2472991,.566293-.5634132,.5682407-.3203083,.0019597-.5803929-.2613513-.5767006-.5838701,.0036206-.3171417,.2513618-.5625648,.568874-.5635686Zm-.2018805,2.1251161c.004708,.3190058-.2557591,.5774654-.5802854,.5758045-.3159588-.001637-.5661735-.2459608-.5716103-.5581556-.0055563-.318492,.2538472-.5773817,.5775132-.57639,.3142023,.0009559,.569818,.2496172,.5743825,.5587411Zm-1.3598583-2.1249966c.326486,.0009201,.5789829,.2555321,.5743586,.5791741-.0045407,.3182052-.2727268,.5766768-.5896177,.5682407-.3155406-.0084002-.5581078-.2566194-.5590279-.5720644-.0009559-.3301543,.2447181-.5762705,.5742869-.5753504Zm-.2162075,2.119285c.0062972,.3269042-.2415516,.5804646-.5684199,.5815281-.327406,.0010635-.5771308-.2501788-.5732115-.5767126,.0037759-.3148356,.2502744-.5567576,.568396-.5578449,.3185278-.0010874,.5671891,.2388152,.5732354,.5530294Zm-1.3743048-2.1191416c.3315763-.0097744,.5854952,.2320998,.5907767,.5627441,.0050903,.3180738-.2344418,.5721122-.5505201,.5838582-.318026,.0118296-.5903585-.2473111-.5957715-.5669024-.0053174-.3141903,.2402133-.5704154,.5555148-.5796999Zm-1.5429786-.0000119c.3157676-.0013264,.5633654,.241922,.5684199,.5584543,.0051979,.3260797-.2473708,.5885303-.5659345,.5880643-.3115257-.0004541-.5629592-.2494858-.5681092-.5626724-.0054249-.3297481,.2394127-.5824721,.5656238-.5838462Zm-2.1330026,.5645962c.0033458-.3181455,.2498682-.5633415,.5677986-.5647515,.3306084-.0014697,.5784811,.2471796,.5758403,.5776685-.0025213,.3157915-.2514693,.5664483-.5655521,.5694475-.3206787,.003047-.5814922-.2597023-.5780867-.5823645Zm1.5257122,2.1147324c-.1065384,.0340192-.1943047,.0246271-.2750091-.0646209-.1258721-.1391834-.2572647-.2738262-.3928753-.4035339-.0726387-.0694842-.0826402-.1376061-.0547031-.2309049,.075865-.2533812,.2907581-.4169169,.5593744-.4142284,.2891927,.0028917,.5205995,.2061463,.5651578,.4964145,.0399698,.2603117-.1391715,.5329549-.4019447,.6168736Zm1.0521803,1.3484827c-.2522221-.2752481-.4889463-.5335882-.7265427-.7928842,.2159804-.1638823,.4813108-.141155,.679033,.0486688,.2020717,.1939941,.2265076,.4695648,.0475097,.7442154Zm-.2342985-1.9159825c.0114592-.3254225,.2732526-.5617164,.6038969-.5450713,.3109043,.0156534,.5545589,.2807208,.5409728,.5884825-.0141956,.3215151-.2804101,.5601033-.6082224,.5450952-.3133778-.0143509-.5478077-.2714363-.5366472-.5885064Zm.7765617,1.591504c-.0048155-.3219931,.2543252-.5807395,.5798672-.5789829,.3292582,.0017685,.5738687,.2547673,.5667231,.5861644-.0068588,.318265-.2549346,.5589801-.5741555,.557116-.313318-.0018402-.5677747-.2526762-.5724348-.5642975Zm.7882599,1.560735c-.0006811-.3142142,.2410736-.5682287,.5527904-.5807992,.3148356-.0127019,.5839896,.24663,.5891636,.5676552,.0052576,.3260916-.2435471,.5863077-.5643333,.5902032-.320595,.0038835-.5769157-.2521863-.5776207-.5770591Zm1.609117,2.0818245c-.152435,.0886147-.1963719,.0709539-.307451-.0785177-.1493043-.2008887-.29782-.4023629-.4461326-.6039925-.0090574-.0123076-.0133233-.0281641-.0246271-.0528629,.183682-.337527,.517206-.4465269,.8146436-.2767895,.2864086,.1634401,.3779269,.5370415,.1877447,.8134606-.0552169,.0802742-.1390878,.1492326-.2241775,.198702Zm.7955847,1.5506022c-.2026452-.3104741-.4057445-.6216652-.6071709-.9302753,.223604-.2509675,.6570944-.1379049,.8171768,.1041844,.189071,.2859306,.1086892,.637211-.2100059,.8260908Zm.8616753,1.5090312c-.1768949-.3207623-.3525112-.6391826-.5295733-.9602437,.3057662-.0952943,.552181-.0040747,.6906475,.2459608,.1344874,.2428301,.0747537,.5257974-.1610742,.7142829Zm.7334254,1.6131559c-.1506426-.3512565-.2927058-.6824743-.436167-1.0169781,.301572-.072113,.5360258,.030769,.6581937,.2747223,.1270312,.2536799,.0589331,.5077422-.2220267,.7422558Zm.4919336-1.472658c-.3195077-.000932-.5808709-.2648882-.5770352-.5827469,.0039313-.3248728,.2601086-.5711921,.5882316-.565588,.3143934,.0053771,.5654326,.254839,.5690652,.5655043,.0036564,.3128759-.2660234,.5837506-.5802615,.5828306Zm.779322-1.572732c-.3283261-.0038835-.5704154-.2537875-.5655641-.5838343,.0046363-.3153972,.2505493-.5620152,.564166-.5657911,.3226144-.0038715,.5787081,.2508719,.5788515,.5758045,.0001434,.3278243-.2512901,.5776805-.5774534,.5738209Zm.7819508-1.5682869c-.3161858-.0030351-.5628875-.2510272-.5650861-.5680375-.0022942-.3315404,.244037-.5749322,.5791144-.5722078,.3231999,.0026408,.5614536,.2404881,.5636761,.5627082,.0022703,.3277884-.2507046,.5806797-.5777044,.5775371Zm.2112486-2.1599837c.0117699-.3085742,.273396-.562529,.578971-.5620152,.3145966,.0005258,.5831412,.273384,.5776685,.586941-.0055683,.3191731-.2736947,.5783138-.5908962,.5710965-.3178467-.0072292-.5777641-.2810554-.5657433-.5960224Zm1.3488053,2.1586573c-.3241081-.0047319-.5678702-.2627135-.558777-.5913622,.0087946-.3177034,.2538114-.5509861,.5750756-.5475448,.3287921,.003525,.5687186,.2557591,.5588965,.5875744-.0093203,.3150745-.2605985,.5559211-.5751951,.5513327Zm.7822137-1.5625155c-.3249923-.0038237-.5703437-.2593677-.5649188-.5883749,.0051859-.3146802,.2542415-.5658986,.564644-.5695551,.3125891-.0036923,.5835714,.2662504,.5826991,.5804885-.0008723,.3195196-.2647926,.5811816-.5824243,.5774415Zm.8081313-1.5745721c-.3234987,.0106108-.591171-.2419817-.5962972-.5626963-.0049947-.3118483,.2436546-.5710248,.5558853-.5794489,.3323291-.0089618,.585304,.2317891,.5905975,.562051,.0051381,.3204755-.2311797,.5696507-.5501855,.5800942Zm.7530578-1.565909c-.3170223-.0043853-.55947-.248972-.5607964-.5657314-.0013503-.325064,.2522102-.5734266,.5807275-.5688262,.3172373,.0044451,.5605096,.2497128,.5607964,.5654087,.0002987,.3261992-.2522221,.5736895-.5807275,.5691488Zm.2227795-2.1185919c-.0045526-.330704,.2378951-.5795445,.5673445-.5822689,.3260677-.0027005,.5822092,.2494858,.581313,.5723512-.0008484,.310271-.2500832,.5662452-.5595059,.5746215-.3245263,.0087946-.5846827-.2405717-.5891516-.5647037Zm1.3481601,2.1185322c-.3148834-.004003-.5639151-.252031-.5660181-.5637478-.0021389-.3188146,.2589853-.5743347,.583189-.5706783,.3137004,.0035489,.5678463,.2558188,.5684916,.5642975,.0006692,.3203919-.2601205,.574263-.5856625,.5701286Zm.7951307-1.5534341c-.3202844,.0016729-.5800942-.2618292-.5761629-.58436,.0038596-.3171417,.2517681-.5623378,.5693161-.5630786,.3324247-.0007767,.5734027,.2439892,.570738,.5796879-.0025213,.3191253-.2478129,.5660898-.5638912,.5677508Zm.7683407-1.5715848c-.324825-.006118-.5717418-.2660831-.5617045-.5913861,.0097385-.3150267,.260013-.558765,.5733907-.5584065,.3205711,.0003824,.5777402,.2609211,.5743228,.5818507-.0034533,.3248131-.2606343,.5740599-.586009,.5679419Z"/>
  <path class="cls-1" d="M65.6692092,31.3683687c-.4232261,.006584-.6587314-.307678-.5423469-.7235912-.4060074-.5172776-.8383626-1.0130588-1.2963128-1.4841889,.0262881,.0505687,.0395516,.115787,.0344971,.1684349-.0270528,.2813422-.2747462,.4955183-.5582751,.4991747-.3075107,.0039552-.5546067-.2222657-.5773459-.5285935-.0236473-.3183128,.1943406-.5932263,.5049103-.6207451,.0517158-.0045885,.1154286,.0174457,.1623767,.0491229-3.6812269-3.5511009-8.7890718-5.6303682-13.9125581-5.5247021-3.1970722,.0659233-6.3570424,.9834608-9.1335173,2.5600643-1.4097578,.8005317-2.7233611,1.7716849-3.8968727,2.8905174-.3611384,.3443021-3.6394288,3.8482398-2.4695138,3.8514302,4.2018981,.0114712,8.4037961,.0229423,12.6056942,.0344135,.5946602,.0016251,1.2590555-.0244957,1.6741322-.4503267,.3205233-.328828,.4188288-.8328421,.7581003-1.1422886,.3653087-.3332133,.9083247-.3564424,1.4027437-.3615327,1.6117459-.0165854,3.2234798-.0331708,4.8352137-.0497442,.7229221-.0074443,1.5244814,.0142792,2.04998,.5108012,.2998753,.2833377,.4653228,.6869194,.76852,.9666962,.1294329,.1194435,.2758336,.2091455,.4330961,.2774587,.043913-.1559839,.0863683-.3067102,.1322768-.4697799,.3828141,.0704281,.5495403,.2814378,.5112672,.6319773-.0247705-.0012905-.0491826-.0044451-.0737739-.0065242,.311908,.0484896,.6388122,.0546075,.9516762,.0529944,.8047497-.0041463,1.6094875-.0082927,2.4142372-.012451,.6210678-.0032024,1.2421475-.0064047,1.8632152-.0096071-.0494096-.2505732,.0423119-.4326898,.2351349-.5686708,.1908275-.134583,.4427748-.1313687,.6367092-.0012786,.1931457,.1295405,.2659039,.3064353,.2265793,.5634013,.1199812-.0024496,.2418861-.0135384,.3414582-.0778725,.3234867-.209038,.1410116-.7094076-.0813019-1.0245897Zm-3.6901409-3.8537722c.2918813,.2101612,.5488711,.4224613,.8218967,.6694976-.2427704,.1010538-.442273,.0946371-.6230752-.04322-.1947946-.1485396-.2639203-.3487113-.1988215-.6262776Zm.3395225,1.7397807c-.0035847,.3186951-.2709703,.5794967-.5882794,.573809-.3179782-.0056997-.5786245-.2777455-.5685035-.5933697,.0098939-.3082635,.2702892-.5633774,.5763661-.5646679,.3145488-.0013144,.5839418,.2698471,.5804168,.5842286Zm-.7906139-1.5346501c-.0161313,.3140589-.2754273,.5464096-.5959387,.5340064-.3170461-.0122718-.5535671-.266119-.5454417-.5854116,.0083763-.3293776,.264709-.5685513,.5966676-.5567337,.3243949,.0115548,.5617523,.2765386,.5447128,.6081388Zm-1.2414066-1.3814504c.1028222,.062482,.1858328,.1129312,.2841263,.1726649-.1071837,.120734-.2121926,.1843511-.3784766,.1509414,.0316652-.1086056,.0590526-.2025257,.0943503-.3236062Zm-.3846304,1.2756648c.01833,.0025452,.036648,.0051023,.054966,.0076474,.0347122,.1673595-.0360505,.3043801-.1724976,.4242418,.0391812-.1439631,.0783624-.2879261,.1175316-.4318892Zm.2588061,1.0566851c.3151104-.009631,.5839299,.2529152,.5868694,.5731876,.0029873,.3245263-.2515171,.5844556-.5722078,.5844078-.324132-.0000597-.5742391-.2540504-.5724229-.5813369,.0017446-.3141664,.2461998-.5667231,.5577613-.5762585Zm-1.1370668,2.5896981c-.1231357-.0770002-.1661526-.1942928-.1123457-.3438122,.0578696-.1608233,.1034914-.3262589,.1497345-.4910015,.0234322-.0834527,.0710137-.1377017,.154789-.155494,.2367122-.05027,.4523103-.01643,.6142806,.1803959,.1521363,.1848769,.1818776,.3932457,.0797126,.6114129-.1022367,.2183583-.2817843,.3238572-.5908006,.3338586-.0611078-.0271484-.1868485-.0674887-.2953704-.1353597Zm1.7054509,1.2308794c-.3271551,0-.6372708,.0007886-.9473864-.0007647-.0529227-.0002629-.1057976-.0105511-.1628188-.0166571-.0491468-.2517322,.0469481-.4374933,.2419578-.5678224,.1978895-.1322649,.4114203-.1337824,.6156428-.0059148,.2033024,.127294,.2891449,.3126369,.2526045,.5911591Zm-.3435852-1.6690539c-.0011352-.3316719,.2455067-.5737373,.5810621-.570272,.3226383,.0033338,.5603423,.2422566,.5617403,.564644,.0014219,.3274777-.2526165,.5797835-.5796521,.575685-.3159468-.0039671-.5620749-.2530944-.5631503-.5700569Zm1.9252551,1.6527194h-1.13586c-.0279968-.2556157,.0562445-.4447943,.25742-.5731876,.2028006-.129421,.416439-.12825,.6187377,.0019119,.2013428,.1295405,.2791196,.3208818,.2597023,.5712757Zm-.3589637-1.6589927c.0017087-.3296764,.2500952-.5703557,.5820658-.5639987,.3187668,.0060941,.5539854,.249438,.5520616,.5711324-.0018999,.3169386-.2459608,.5650861-.5588367,.5681809-.3252074,.0032143-.5769874-.2485777-.5752907-.5753146Zm1.9108325,1.6628762h-1.125285c-.028881-.2780801,.0639995-.4708314,.2809478-.5936923,.208811-.1182485,.4222104-.1028461,.6160611,.0365643,.1844348,.1326472,.2592721,.3170223,.2282761,.557128Zm.1944959-1.0875855c-.3116093-.0114712-.5587531-.2727388-.5522169-.5837745,.0068468-.3256137,.2649719-.5647396,.5994876-.5553715,.3197825,.0089499,.5521452,.255066,.5469473,.5793175-.0052218,.3271073-.2651033,.5719329-.5942181,.5598285Z"/>
  <path class="cls-1" d="M99.0746388,45.7078093c-.2470243-2.0357606-.5732354-4.0687729-1.0005242-6.0741707-.6414649-3.0105583-1.6063568-5.9311158-2.8125493-8.7650541-1.407834-3.3076972-3.1872022-6.4066671-5.2627653-9.3433439-2.9873889-4.2267761-6.548324-7.8987424-10.6895563-10.9871612-3.6616423-2.7307456-7.6284293-4.9365423-11.9023328-6.5835022-5.0096351-1.9304529-10.1880515-3.0346119-15.5516675-3.211435-1.6415828-.0541176-3.2889371,.0444866-4.9330292,.0939321-2.6455006,.0795573-5.24146,.5391087-7.8068656,1.1443439-4.6863873,1.1056167-9.1472946,2.7939326-13.3250316,5.2220069-3.3620657,1.9540047-6.509788,4.1863164-9.347789,6.8478646-2.6227494,2.4596797-4.9286797,5.1869123-6.9734858,8.1460893-2.7155941,3.9299001-4.78112,8.1699756-6.2542082,12.7086359-1.4161506,4.3631993-2.3282752,8.8255405-2.4867206,13.4120093-.0741802,2.1475446,.0215921,4.306441,.1469026,6.4539856,.1438077,2.4648417,.6064301,4.8892357,1.2109722,7.2835895,1.126456,4.4613972,2.8839334,8.6653027,5.1800296,12.6476237,2.2635707,3.9259211,5.0300681,7.4560154,8.32866,10.5670897,2.9349084,2.7680747,6.1347647,5.1801371,9.6281394,7.202216,3.1524064,1.8247032,6.4532328,3.3223468,9.9151215,4.4498066,3.9044843,1.2715781,7.9068201,2.0097712,12.014786,2.2552182,3.3001693,.1971845,6.5791766,.0937289,9.8427815-.3674834,3.0691927-.4337413,6.0767517-1.1754713,8.9944175-2.2234933,6.0696778-2.1802255,11.6080856-5.2964141,16.4988149-9.5265121,2.1833442-1.888404,4.2152094-3.9300435,6.0300545-6.1725479,1.7070879-2.1093672,3.2090452-4.3650156,4.5348724-6.7374547,4.1341824-7.3977754,6.2369298-15.3236184,6.2442068-24.3659041-.0487644-.9869022-.0372454-2.5436104-.2232336-4.0763486ZM10.6889044,72.0966407c-.0418458-.0155578-.087838-.0403044-.1138035-.0745506-.0928806-.1224785-.1779703-.2508838-.2659995-.3770427l.0379624-.0502222c.3207504,.0786372,.6415008,.1572624,.9710815,.2380624-.1528652,.2448495-.4081941,.3459391-.629241,.263753Zm1.0281386,1.5662197c-.1914967-.2733482-.3873668-.5529458-.578971-.8264493,.1732026-.2633946,.4130215-.3552714,.6724968-.2702534,.2326136,.0762115,.3977983,.3108685,.3914295,.5560287-.007038,.2711854-.1663557,.4550347-.4849553,.540674Zm1.0193082,1.4653571c-.2185854-.3147519-.4267989-.6145794-.6351677-.9146458,.2802428-.1852712,.5937998-.131763,.7784616,.1182485,.1882465,.2548868,.1363276,.5795206-.1432939,.7963973Zm-.110159-2.0259145c.0036325-.3157795,.2486613-.5580242,.5664005-.5599599,.3186712-.0019358,.5686828,.2376323,.5754938,.5514641,.0070978,.32694-.2403686,.581325-.5670099,.5828903-.3285412,.0015653-.5786245-.2483028-.5748844-.5743945Zm1.0606044,3.3857608c-.1897043-.2713766-.371797-.5318556-.5618718-.803746,.4281491-.0868701,.8022762,.4160088,.5618718,.803746Zm-.2789882-1.8036249c-.0060582-.3287085,.24332-.5835953,.5713355-.5839538,.3205831-.0003585,.5662213,.2390542,.5721122,.5576059,.0061299,.3305248-.2398548,.5834519-.569101,.5851845-.3168191,.0016729-.5685155-.2432364-.5743467-.5588367Zm13.7359142,2.1135374c-.258352-.0691376-.400236-.2461878-.4142642-.5488114,.279024,.0924862,.5372207,.1773011,.7947961,.2640398,.0578816,.019489,.1135047,.0456696,.1713146,.0692332-.1173524,.1978417-.3245383,.2763594-.5518465,.2155383Zm.9182664,.4428465c.3306323-.0021628,.5821375,.2431767,.582018,.5677627-.0001195,.320846-.2593199,.5758762-.5821256,.5727455-.3176556-.0030829-.5616925-.2448256-.5666992-.5613341-.0052457-.3321857,.2343343-.5769994,.5668068-.5791741Zm-.9921359,.5701167c-.0004421,.3275972-.2565119,.5769994-.5848619,.5696029-.3124099-.007038-.5627202-.2632392-.5615731-.5747888,.0011949-.3255061,.2572886-.5706544,.5900956-.5648591,.3223516,.0056161,.5567695,.2458055,.5563393,.570045Zm-1.2468674-1.0018147c-.244981,.0495052-.51061-.0839068-.6222985-.3125294-.1169939-.2394724-.0550496-.5063203,.1690682-.6939813,.258842,.0848507,.5224516,.1779822,.7904586,.2560339,.1187504,.0345927,.1367816,.1070044,.1318228,.2093965-.0127617,.2640398-.2054652,.4878111-.469051,.5410803Zm-.3185995,1.0093665c-.0048513,.3164009-.2514813,.5613819-.5652892,.5615253-.3249804,.0001434-.5733907-.2538831-.5688023-.5816356,.004469-.3198542,.244969-.5570802,.5651936-.5574865,.3308713-.0004421,.5739882,.2464029,.5688979,.5775968Zm-1.3556283-1.0013128c-.3179662-.0056997-.5786125-.2777574-.5684797-.5933816,.0098819-.3082635,.2702773-.5633774,.5763541-.5646559,.3145368-.0013264,.5839418,.2698591,.5804049,.5842286-.0035847,.3186951-.2709703,.5795087-.5882794,.573809Zm-.2019522,.9849067c.0029156,.3280991-.2491632,.5813847-.5762346,.578959-.3164845-.0023301-.5635447-.2493663-.5665678-.5664841-.0030709-.3220409,.2337727-.567225,.5542004-.5737134,.3364396-.006811,.5856505,.2308093,.588602,.5612385Zm-.8962203-2.724317c.1249042,.0383089,.2498084,.0766178,.3747007,.1149267-.1573461,.0594708-.289133,.031474-.3747007-.1149267Zm.1155958,1.1558509c.0025332,.3243351-.2525806,.5841091-.5731398,.5835833-.3241917-.0005258-.573797-.2547195-.5715984-.5821495,.0021628-.3223874,.2658322-.5831771,.5819463-.5755894,.3094465,.0074324,.5603542,.2634185,.5627919,.5741555Zm-1.5547963-1.0201685c-.2700263-.0933944-.4126511-.3569682-.3441826-.675496,.3573864,.1071956,.7127892,.2137818,1.0803682,.3240364-.1757836,.3352447-.4435037,.4526807-.7361856,.3514596Zm-.0137654,1.0136802c.0060702,.3222201-.2479205,.5861046-.56793,.5900359-.3204755,.0039432-.5795804-.2535963-.5804885-.5769874-.0008842-.3112628,.2453036-.5684438,.5558016-.58062,.3139274-.0123076,.5866065,.2488525,.5926169,.5675715Zm-.8846655,1.8775183c-.1598196-.0265271-.3270954-.053795-.49418-.0821741-.1684946-.0285943-.33681-.0582759-.518604-.0898096-.0571407-.2854766,.0366719-.5037034,.2587105-.626409,.2194696-.1212836,.5175525-.0793302,.6913645,.0973017,.1800016,.1829292,.2074727,.4392738,.062709,.701091Zm-.304643-2.8828699c-.2554484,.0722683-.5170865-.0254277-.6544895-.2443716-.1351685-.2153591-.1081754-.5075272,.0617889-.6959051,.0798441-.0884952,.1660809-.1306517,.2893361-.0872047,.1469145,.0517995,.298752,.0895587,.4482237,.1341767,.2198759,.0656365,.2554962,.1149745,.2539787,.3487472-.0016848,.2605507-.1602497,.4770569-.3988379,.5445575Zm-.3715103,1.0161058c.0002629,.3174166-.2667523,.5824721-.5836311,.5793295-.3223277-.0032024-.5761868-.2637769-.5711802-.5862838,.0049589-.3192687,.2761323-.5817671,.5899522-.5711085,.3043562,.010336,.5646081,.276682,.5648591,.5780628Zm-1.3728828-.9934503c-.3178587-.0043256-.5604498-.2468809-.5641063-.5640226-.0038118-.3297361,.2404642-.578732,.5689576-.5799628,.3265218-.0012188,.5809426,.2503939,.5798791,.5734744-.0010515,.3216705-.2606224,.5749202-.5847305,.570511Zm-.2057639,.9902838c.0017804,.3255181-.2512662,.5831532-.572148,.5825079-.3209296-.0006453-.5726977-.2589853-.5698657-.5847544,.0027125-.3135092,.2494738-.5658628,.5604259-.573104,.3165323-.0073726,.5798194,.2530944,.5815878,.5753504Zm-.9541496-2.7736071c.1754729,.0482984,.3509339,.0966087,.5573789,.1534268-.2556037,.102416-.3917282,.0672138-.5573789-.1534268Zm.1704543,1.2212484c-.0046841,.318492-.251075,.5612982-.5699613,.5616567-.322495,.0003824-.582723-.2633826-.5759718-.5837626,.0066437-.3147519,.2582326-.5597209,.5749083-.5597807,.3299154-.0000717,.5759001,.2505851,.5710248,.5818866Zm-.7760957,1.5534461c.0015056,.3194479-.2605626,.5829142-.5783616,.5814325-.3250401-.0015295-.5724707-.2556037-.5690293-.5843242,.003298-.3151104,.2496053-.5670338,.5606888-.5734983,.3116929-.0064764,.5852084,.2622355,.5867021,.57639Zm-.6741099-2.5636132c-.3090163-.0464224-.495112-.3132105-.4459533-.6830001,.3615805,.0973495,.7071373,.1903854,1.0517501,.2831704-.0433634,.2777335-.3027669,.4453678-.6057968,.3998297Zm-.1151179,1.0098684c-.0047916,.3178228-.2502625,.5605454-.5663886,.5600316-.3269878-.0005377-.5726857-.252258-.567691-.5815878,.0048035-.3173688,.2496889-.559697,.5658628-.5599599,.3250999-.0002868,.5731518,.2535724,.5682168,.5815161Zm-.7674445,1.5597911c-.0024735,.3185039-.2693333,.5801539-.5867977,.5753504-.3178467-.0048155-.5791263-.2760965-.570045-.591876,.0088663-.3081321,.2685208-.5638195,.5748844-.5661376,.3143934-.0023779,.5844078,.2679591,.5819583,.5826633Zm-.6433051-2.5641987c-.1676104-.0026049-.348544-.1091792-.4532184-.3259721-.1007909-.2087632-.0718142-.4096638,.0674648-.5953771,.0672258-.0896423,.1415852-.131524,.2612557-.0930837,.1930859,.0620279,.389888,.1145443,.5879806,.1581228,.1018304,.0224046,.139996,.0792347,.1627351,.1711354,.0837873,.3387458-.1895968,.6797619-.6262178,.6851748Zm71.1833071,3.6221982c-.2598815,.3491893-.5130716,.7045921-.7925258,1.0377816-2.5302632,3.0168316-5.3366707,5.7433472-8.5585612,8.0190343-3.7732112,2.665121-7.797605,4.8446535-12.1919916,6.3285078-2.9895995,1.009486-6.0414899,1.7308667-9.1661503,2.110347-1.7014957,.2066362-3.4237949,.2418861-5.136714,.354423-6.5413815-.04745-12.7698752-1.4606253-18.6865325-4.2193557-4.9540119-2.3099213-9.4295449-5.3387618-13.296282-9.2152493-1.2620666-1.2652571-2.3874472-2.6668895-3.5735891-4.0077009-.0798082-.0902159-.1510011-.1896446-.2148094-.2918813-.0494574-.0792466-.0811346-.1696059-.120722-.2550302,.107327-.0207795,.2196369-.0734871,.3212044-.0575828,.382384,.0598532,.7648755,.1191208,1.147355,.1784482-.0246152-.0068468-.052851-.0193098-.0965728-.0390139,.074455,.005413,.148922,.010814,.268939,.0195249-.0668673,.0174457-.1022487,.0263239-.1340931,.0254397,.345043,.0535201,.6900142,.1075182,1.0350094,.1614088,.1221559-.1907917,.2970314-.223138,.4877275-.2045451,.2104002,.0205047,.3627874,.1246413,.4509003,.3529055,.170526,.0271365,.3410161,.0544641,.5114704,.0819949,.0716948-.3197586,.3124935-.478216,.6352155-.4345777,.2896827,.0391692,.4813466,.2883443,.4510914,.6142806,.2247392,.0378309,.4496814,.0745506,.6742175,.1135645,.5476523,.0951628,1.0947908,.192823,1.641547,.2923951-.1136242-.0463746-.2074727-.1171253-.2509077-.20856-.1849725-.3893503,.0945534-.8196981,.5302663-.8163882,.2440609,.0010754,.4181477,.1191089,.5170745,.3357704,.1001576,.219374,.0594947,.4302761-.0935736,.6124405-.0781473,.093012-.2187526,.136232-.3694072,.1384187,1.1491116,.2112247,2.2962276,.4322596,3.4413482,.6628658,.3249326-.3072001,.7510025-.2177848,.9219706,.1883302,.1676462,.0345569,.3355673,.067871,.5031418,.1028342,.0661623-.3430235,.345509-.5359302,.659305-.4709509,.3168311,.0656007,.4915392,.3425695,.4220551,.7012822,.1832996,.0392768,.3668501,.0773945,.5500541,.1171612-.0714916-.0433753-.0904071-.1101829-.0917932-.2461759-.0025571-.2504776,.153833-.4702817,.391776-.5506755,.2469645-.0834288,.514386,.0058192,.6585522,.2198042,.136686,.2029081,.1271506,.4856961-.0184375,.6782085-.0336846,.0445463-.0693049,.0710137-.1121545,.0818515,1.0693272,.2366285,2.136898,.48149,3.2026883,.7348832,.3012255-.2945818,.7296973-.1929067,.8914287,.2131963,.075853,.0183778,.1518734,.0359908,.2277025,.0544522,.0879336,.0214128,.1754729,.0445702,.2633229,.0663774,.0627807-.3720958,.3449354-.5680375,.6848522-.4900695,.3295091,.0755902,.4891733,.3747724,.3838657,.7611951,.2082016,.0540459,.4163912,.1081396,.6245569,.162293-.0530661-.0388944-.0927491-.0924026-.1181649-.1653401-.0771316-.2214053-.0230499-.4693258,.1447398-.6255487,.1635477-.1522558,.4323433-.1977461,.6354545-.0989746,.217032,.1055466,.3264023,.283254,.3278721,.5258332-.0010635,.164886-.0586463,.306041-.1802287,.4181238-.060367,.0556471-.1252268,.0919724-.1981762,.1025832,.6192993,.1587561,1.239435,.3136287,1.8636215,.4502072,.1084264,.023731,.2138893,.0526478,.3202007,.0800711-.0333022-.0103001-.067883-.0210066-.1058095-.0327406,.1859284-.0428257,.2979514-.0008723,.3884541,.1093345,.2391379,.0703923,.4731615,.1521243,.7037796,.2427584,.0662579-.0915184,.113684-.176393,.1801928-.2404403,.1403425-.1351685,.2045451-.1341648,.3544828-.0033697,.1166832,.1017827,.2281447,.2101612,.3358182,.3215151,.1145563,.1184875,.1770741,.2604312,.167001,.4281133,.1220364,.1113778,.1083308,.2404045,.0843608,.5915415-.0983294,1.4401803,.0175055,2.8453258,.6436994,4.1800909,.517206,1.1024383,1.2798947,1.9921582,2.2583608,2.6950177,1.4676753,1.0542594,3.1040841,1.6050185,4.9168143,1.7589591,1.9718567,.1674311,3.9196,.1013047,5.835929-.3525351,2.0856601-.493941,3.7492652-1.6279011,4.8703441-3.5014762,.7512057-1.2554349,.9407427-2.6348061,.8968177-4.0513391-.0443791-1.4314813,.0052696-1.5549875,1.4121955-1.9127682,.0273874-.0069663,.0547389-.0141,.0821144-.0210783,.1152493-.2553887,.3724303-.3310744,.6866804-.1762257,.6759859-.173812,1.3518285-.3484246,2.0283641-.5200737-.2568823-.0303986-.476328-.2490317-.5033808-.5190581-.0121642-.1213912,.0188318-.2079626,.1424814-.2597142,.1941494-.081278,.3848933-.1714461,.5731996-.2656052,.0923189-.0461714,.1622811-.0269333,.2333664,.0362656,.130365,.1159065,.1952965,.2600847,.1949022,.3884422,.0019238,.2319923-.0947685,.4153277-.2485538,.522129,.2555082-.0641907,.5110761-.1282022,.7669546-.1908275-.1325636-.2427345-.1151537-.474918,.041093-.6575843,.1570593-.1836342,.434291-.2482789,.6630092-.1545978,.225958,.0925579,.3405501,.2807925,.3345158,.5661257,.1573102-.0365524,.3142501-.0748015,.4717873-.1103382,.00705-.233223,.1423021-.406808,.3613177-.4727194,.258842-.0779083,.4878708,.0078506,.6405329,.2481953,.2856199-.0638561,.5712757-.1274733,.8569435-.1911741,.0741682-.0630914,.1048536-.0701892,.2050948-.0457652,.752066-.1675506,1.5044069-.3337988,2.2568433-.4996407-.1710756-.0137295-.2961471-.1030134-.3790621-.2730614-.119085-.2442282-.0675484-.5371849,.1450982-.6977333,.1011016-.0763191,.2312514-.11415,.2923832-.143031,.2894437,.0080776,.4625148,.0994048,.5731876,.2902443,.115787,.199646,.1127758,.4083375-.0147094,.5971695-.0343298,.0508196-.0898813,.0888776-.1479063,.1232194,.2462356-.0541176,.4923518-.1086534,.7386352-.1625201-.1271028-.2405598-.102631-.4769613,.060821-.6571302,.1637508-.1804915,.4181597-.2366883,.6434485-.1421468,.2329482,.0977677,.3474567,.28513,.3385665,.5723631,.1515149-.032884,.3031613-.0650988,.4547001-.0978633,.0446061-.2972464,.2110813-.4736633,.4630525-.5141231,.2355651-.0378309,.4396083,.064597,.5672728,.2923593,.2675051-.05732,.5347592-.115799,.8023599-.1726888,.1148908-.1256331,.2565597-.1368294,.4061986-.1151537,.0005258,.0096788,.0010515,.0193337,.0015773,.0290125,.7345247-.155494,1.4695752-.3084667,2.2048766-.4601608-.3088371-.0158804-.5504484-.2635499-.5479033-.5732115,.0026647-.3259602,.2533334-.5676671,.5855669-.5646201,.3239408,.0029634,.5821017,.2659995,.5713833,.5821614-.0074085,.2182508-.1373671,.4034144-.3211805,.49559,.0794258-.0163225,.1586963-.0334217,.2381341-.0496964,.2112247-.0432797,.4229035-.0843369,.6345822-.125418-.1638464-.1959537-.1794281-.4475903-.0397667-.6579547,.1438675-.2167332,.4345061-.3083113,.6825938-.2150723,.2616739,.0983413,.3855744,.3376823,.3404425,.688425,.1581945-.0285704,.3165801-.0561967,.4749419-.0839665-.0392887-.31192,.1277839-.5648352,.403522-.6239116,.3191133-.0683729,.5789351,.0935139,.679738,.4384612,.1705618-.0284628,.3411356-.0568061,.511781-.0848627,.1528174-.4019088,.6034667-.4828881,.9349713-.1528532,.3091597-.0502341,.6182597-.1007192,.9273238-.1513596,.0734513-.0491348,.1066579-.0545836,.2025616-.0331827,.3429877-.0564477,.6858798-.1133733,1.0284493-.1718523,.0950553-.016215,.19213-.0288332,.2881651-.0282119,.0690062,.000466,.1378451,.0258221,.2067557,.0400654-.0230379,.0647882-.0321551,.1399482-.071408,.1926797Zm-54.85975,1.054821c-.3040097-.1002293-.4578307-.4119581-.3389608-.7211417,.3396061,.1293612,.6792958,.2587464,1.0181372,.3877969-.0930717,.2900889-.3890516,.4290095-.6791763,.3333448Zm.9682018,.4450571c.3217302,.0010874,.5748246,.2605746,.5704393,.584838-.0042897,.3176317-.2475261,.5613938-.5637119,.5649427-.3291148,.0036923-.5786006-.2413365-.5799628-.5696029-.0013503-.3265816,.2502864-.5812772,.5732354-.5801778Zm-.9973218,.5650741c.0054846,.3251596-.2444074,.5818746-.569113,.584611-.325781,.0027602-.5789949-.2486135-.5787559-.5745379,.000227-.3143217,.2447061-.5667829,.5569248-.5751114,.3207504-.0085556,.5855311,.2446225,.590944,.5650383Zm-1.3588904-.9840941c-.3259124-.0006572-.5777044-.2592363-.570977-.5863794,.0059746-.2910568,.2484701-.5555268,.5054241-.5512371,.3878567,.0064884,.638633,.234633,.6342237,.5769874-.0041463,.3212403-.2476217,.5612743-.5686708,.5606291Zm3.3417164,.9858148c.0055444-.3092673,.262833-.5655163,.5692444-.5669263,.3195794-.0014697,.5871561,.2603475,.5874071,.5747768,.0002509,.3207623-.2593558,.5771906-.5822928,.5751473-.3226503-.0020314-.5800823-.2633348-.5743586-.5829978Zm1.6015533-.1668815c.349954,.1579674,.6812316,.3074868,1.0149826,.4581414-.1598435,.2627015-.4307301,.3571713-.6942083,.2566553-.263526-.1005399-.3873787-.3520451-.3207743-.7147967Zm2.616739,1.2483371c.2377757,.1307115,.480092,.2698232,.7282156,.3976669,.1142097,.0588375,.1311058,.1370326,.0992255,.2484821-.0710495,.2484223-.2948805,.4240864-.5504723,.4268825-.2586986,.0028319-.4922562-.1692355-.5591832-.4119461-.074455-.2699785,.0177325-.4938932,.2822144-.6610854Zm1.4058624,.8016907c.1123337,.069747,.2246675,.139506,.3627396,.225241-.2235203-.0025691-.2461998-.0159162-.3627396-.225241Zm23.6624352,.1852831c.272918-.1389683,.5228698-.2662504,.7890127-.4017774-.0549182,.4015026-.401873,.5819822-.7890127,.4017774Zm3.7134178-1.7271983c.3367981-.1378571,.6540832-.2677441,.9699822-.3970455,.0967999,.1529727,.0273993,.3769591-.1535821,.5185204-.2452558,.1918552-.5698777,.1541079-.8164001-.1214748Zm1.4740561-.4783354c.0188079-.064836,.0793302-.1373432,.1397809-.166535,.161349-.0779561,.3340139-.1321095,.5004413-.1999925,.0912077-.0372096,.1656746-.0124629,.2406673,.0405792,.2044854,.1446203,.2924548,.4021717,.2170081,.644034-.0766178,.2455665-.2871494,.4008334-.5450235,.4019208-.3828022,.001637-.6594722-.35232-.5528741-.7200065Zm2.6914808,.1414537c.002581,.3284456-.2462834,.5799747-.5724229,.5785647-.3286726-.0014219-.5730681-.2496172-.570272-.5791622,.0027483-.3249326,.2601564-.5769396,.5828186-.5705827,.3131627,.0061777,.5574028,.2553409,.5598763,.5711802Zm-.2273202-1.1834295c.3547337-.1248684,.6653632-.2342148,1.0126764-.3564663-.0386196,.2713766-.1536777,.4306106-.3670413,.5107534-.2238071,.0840621-.4261656,.0388944-.6456352-.1542871Zm1.4349824-.3217422c-.0042539-.0534365,.0039432-.1078648,.0074443-.1846379,.281617-.0967282,.5477957-.1857014,.8120387-.2800636,.1136242-.0405673,.1754968,.0137654,.2302358,.1009821,.1231238,.1961568,.1093703,.4707239-.0355606,.660715-.1384545,.1814714-.3881315,.2626537-.6088318,.1979492-.2217399-.0650032-.3869963-.2645536-.4053263-.4949447Zm1.5514745-.0729136c.0090813-.3254822,.2681862-.562529,.6030724-.5517389,.3193882,.0102762,.5504245,.2581131,.5433745,.5828544-.0071097,.3267488-.2686283,.570033-.5978148,.5561004-.3114181-.0131799-.5573072-.2763713-.5486322-.5872159Zm4.2791492,.0402566c-.0089977,.3177153-.2594275,.5540451-.5803571,.5476523-.3151821-.0062733-.5596612-.256942-.5592191-.5733907,.0004541-.3296286,.2503939-.571682,.5849933-.5665319,.3322693,.0051142,.5641899,.2527957,.5545828,.5922704Zm-.3172373-1.812754c.0369945-.092773,.095832-.1554103,.1971606-.1800853,.1056064-.0256906,.2086795-.0617531,.3130193-.0927252,.2561534-.0760681,.4353783,.0024615,.5426576,.247562,.033589,.0767612,.0451557,.1631653,.0553364,.2017012-.0023898,.2819755-.1410594,.4882054-.3564066,.5761151-.2177609,.0889015-.4586911,.0406987-.6253814-.1251073-.1596045-.1587561-.2106272-.4162478-.1263859-.6274605Zm-.8505985,.7645648c-.3111552,.1064548-.6071829-.047438-.7206159-.3959104,.3529055-.109932,.7055361-.2197564,1.0572825-.3293179,.1160619,.3267727-.0277459,.6195383-.3366666,.7252283Zm-.3907125,1.0246973c-.0006333,.3208101-.2602042,.5753623-.5830815,.5718135-.3174644-.0034891-.5612146-.2457696-.5657433-.5623259-.0047438-.3320781,.2351707-.57639,.5677866-.5782182,.3303575-.0018163,.5816834,.2441804,.5810382,.5687306Zm-1.5014435-1.0140625c.1851637-.1221798,.3643408-.1458869,.5414627-.1837417-.1263979,.170275-.2939485,.2314426-.5414627,.1837417Zm10.8722465-3.1846571c.2512782-.0659233,.4505418-.1182127,.6748747-.1770741-.1777432,.2391498-.3508622,.288906-.6748747,.1770741Zm.8120387,2.6215545c.0042778,.3169984-.2601564,.5848858-.5773579,.5848858-.3223516,0-.5786125-.2580653-.5767843-.5808111,.0018163-.3190297,.2698471-.5835833,.5844795-.5768918,.3035795,.0064645,.5655641,.2699068,.5696626,.5728172Zm-.7874593-1.56567c.0029514,.3224591-.2527599,.5780509-.5775012,.5772384-.3186951-.0008125-.5638075-.2395441-.5712279-.5563393-.0077191-.3298676,.2342746-.5828306,.5616686-.5871322,.3272149-.0043017,.5841211,.2434873,.5870605,.5662332Zm-.79059,1.5834862c-.005162,.3234031-.2678755,.5769755-.5875027,.5670338-.3209177-.0099895-.5639987-.2732885-.5541526-.6002404,.0093681-.3113942,.267051-.5609875,.575685-.5576298,.319663,.0034891,.5711563,.2660234,.5659703,.5908365Zm-1.1337091-1.0501131c-.2209393,.0821861-.4309572,.057081-.6106959-.1080201-.1751383-.1608711-.2289811-.4021837-.1467233-.6223941,.040878-.1093703,.1028939-.1882824,.2260416-.2117744,.0994406-.0189633,.196587-.0500429,.2945937-.076331,.2876632-.0771436,.5041695,.0538786,.5697463,.3466083,.0101807,.0454903,.0135623,.0925101,.0168602,.1158468,.0021867,.2644461-.128716,.4738306-.3498226,.5560645Zm-.4260819,1.0339698c.0025093,.3198422-.2582803,.583667-.5764856,.5831651-.3250282-.0005138-.5732832-.2538711-.5708217-.5825677,.0023659-.3152179,.2475142-.567464,.558992-.5751592,.3114659-.0076952,.5858298,.260252,.5883152,.5745618Zm-1.1442483-1.0302895c-.3265696,.12917-.6394216-.0363373-.7720928-.4381744,.363122-.1020455,.7132911-.2004466,1.0607956-.2981068,.1359333,.3031135,.0053532,.6199684-.2887028,.7362812Zm-.4122807,1.0308989c.0025093,.3176795-.261662,.5832129-.5796162,.5826035-.318026-.0005975-.5814564-.2673856-.5774056-.5847663,.0040149-.3153494,.2791555-.5820539,.5912427-.5731159,.3079051,.0088304,.5633415,.2685446,.5657791,.5752787Zm-1.662924-1.0962486c.2780562-.0803459,.5250087-.151718,.7911277-.2286107-.1377017,.3213239-.4534215,.4164629-.7911277,.2286107Zm.0912077,1.1101694c-.005401,.3244666-.2669793,.5776327-.587431,.5685274-.3238691-.0092008-.5652056-.268234-.5563752-.5971695,.0083524-.3117527,.26447-.5620152,.573558-.5604379,.3181096,.0016251,.5755894,.2676126,.5702481,.5890799Zm5.8979928-1.5895683c.0062613-.3174644,.2537277-.5589801,.5724109-.5586455,.3313134,.0003585,.5713833,.247335,.5667829,.5830456-.0044212,.3219931-.2455784,.5598285-.5678941,.5600555-.3264621,.000227-.5777402-.2568465-.5712996-.5844556Zm.9137735,1.9087892c-.1673595-.2251693-.1710398-.4576754-.027722-.6615275,.1437241-.2044017,.3733026-.2810195,.6292649-.1929425-.2016176,.2863966-.3989335,.5666873-.6015429,.85447Zm-.0921995-3.2878139c.3694431-.093251,.7205801-.1818896,1.0724221-.2707074,.0640593,.3053719-.0865356,.556423-.3701242,.6451811-.2890852,.0904907-.569806-.0496128-.7022979-.3744736Zm1.0644162,1.9025517c-.2385523-.1239961-.3310625-.3119917-.3198183-.5466725,.0110051-.2295666,.130126-.4021717,.3448398-.489938,.2188721-.0894631,.4259863-.0646926,.6223344,.1142575-.2170439,.3092434-.4305628,.6134562-.6473558,.922353Zm1.5288309-2.181038c-.1322171,.2028006-.278092,.3966393-.4144076,.5968588-.053305,.0782787-.1219767,.0857111-.2044376,.0691018-.2871136-.0577979-.4964742-.3659898-.4341237-.6543222,.0113039-.0522894,.056137-.1249042,.100301-.1379407,.2542535-.0750166,.5129401-.1349415,.7440362-.1933846,.1756163,.0001912,.2908298,.1936117,.2086317,.3196869Zm4.9437117-12.3374483c-.1168027,.4666492-.1418122,.4715961-.5676074,.2153471-1.0777394-.6485746-2.1636521-1.2839216-3.232812-1.9463094-.4788134-.296649-.917418-.2831106-1.4389735-.0825087-5.3393592,2.0536245-10.4950604,4.4949145-15.4274324,7.3885148-2.0830911,1.2220371-4.078368,2.5943703-6.1055611,3.9107218-.6486344,.4211828-1.2731435,.8797544-1.9039259,1.3279063-.065768,.046733-.0990344,.1392312-.1473805,.2104958,.0886506-.0146257,.1853907-.0111963,.2647568-.0466135,.9489279-.4235368,1.879478-.8931254,2.8457918-1.2716976,1.6847311-.6600339,3.3863463-1.2780068,5.0893118-1.8901963,3.4842455-1.2525671,7.0534613-2.2231707,10.6398002-3.1265365,2.882392-.7260647,5.7811184-1.3873532,8.6726515-2.0770687,.0234322-.0056041,.0480235-.0061777,.0717784-.0105989,.5474014-.1019977,.558777-.0963219,.3753698,.4169886-.2843772,.7959074-.6044465,1.5797341-.8667059,2.3826198-.1484201,.4544013-.4332275,.6393619-.8804116,.7215838-1.7822121,.3277167-3.5701956,.6340803-5.3374593,1.031102-5.8813238,1.3212507-11.6701852,2.9541345-17.2526016,5.2603994-4.7928899,1.9800657-9.2469264,4.5320285-13.2552487,7.838244-.0560056,.0461953-.1159304,.0883279-.1677179,.138813-.2246197,.2190036-.5705946,.4103927-.6335426,.6697963-.0573558,.2363418,.1947946,.5468159,.3080007,.8256607,.8541354,2.1038706,.1316316,4.1633024-1.9999132,5.0335692-1.2528539,.5115062-2.5543646,.4639129-3.8620291,.3620346-.8299504-.0646567-1.5932725-.2906386-2.3242842-.7306651-1.0526702-.6336263-1.9385186-2.0623474-1.496855-3.8496617,.0975288-.3946796,.2443238-.7948319,.4559547-1.1386083,.2054174-.3336913,.11415-.5330744-.1315957-.7452909-.3297003-.2847118-.6515858-.5792339-.9913951-.8513752-2.7480599-2.20079-5.7004738-4.0773165-8.8359841-5.6837091-4.0878556-2.0943113-8.3928985-3.6090303-12.7771881-4.9212474-3.3359927-.9984689-6.6997074-1.8957527-10.120766-2.5577701-1.3043188-.2524014-2.6159504-.4745237-3.9316686-.6568195-.4999873-.0692691-.780493-.2598337-.9360587-.7413954-.2675529-.8282058-.592366-1.6377352-.8776155-2.4605042-.1436285-.4142642-.1247847-.4379235,.3327712-.3522363,.7359108,.1377734,1.4686073,.294307,2.1994755,.4572094,4.671893,1.0414499,9.3203419,2.1722674,13.9003461,3.5738042,3.6078712,1.1040634,7.152424,2.3751994,10.6013598,3.9071131,.3527382,.1566769,.6818888,.3657866,1.0267525,.5411998,.1012688,.0515007,.2189677,.070703,.3291387,.1046982-.0624342-.0867268-.1080918-.1960732-.1898716-.2567031-.8154203-.6045182-1.604672-1.2522684-2.4625953-1.7900268-2.478631-1.5536851-4.9572023-3.1112894-7.4895088-4.5744121-2.4714615-1.4279683-5.0453271-2.6692913-7.6736568-3.7875143-2.0691225-.880304-4.1556072-1.7197421-6.2264384-2.5960909-.5135734-.2173426-.9585947-.2007573-1.4380773,.0971703-1.0682279,.6637381-2.1583586,1.2921545-3.2374124,1.9385664-.3828978,.2293754-.4270856,.2331513-.5177078-.1802167-.2588061-1.1803944-.5328713-2.359558-.7296495-3.5509814-.3831009-2.3196718-.5339347-4.6600992-.4938096-6.6174975-.0560414-6.9153653,1.4471228-13.0959549,4.1059227-19.0155517,1.8361624-4.0880826,4.2230361-7.8343725,7.1742431-11.2088175,2.5936892-2.9656535,5.5253115-5.548445,8.8187773-7.7263883,2.2876004-1.5127713,4.6614973-2.8607043,7.1809346-3.9356238,3.3461973-1.4276576,6.8048478-2.4854898,10.4066727-3.0710806,1.7918072-.2913077,3.5865778-.4731854,5.3973244-.5973368,2.3061693-.1581347,4.599792-.0547509,6.879721,.2051545,4.9116522,.5599121,9.6238736,1.8647566,14.0974947,4.0014993,3.1800327,1.5188773,6.1618056,3.3518851,8.9063764,5.5597131,3.6269061,2.9175941,6.7307035,6.3158298,9.3241895,10.1870597,3.2417978,4.8389418,5.4773955,10.1049692,6.778261,15.7722722,.3998894,1.7421706,.7109252,3.5028145,.8127676,5.2925426,.08926,1.56849,.2496292,3.138175,.2369751,4.706187-.0272082,3.369056-.4522625,6.6978792-1.2714587,9.9710673Z"/>
</svg>